# Blender v2.90.0 OBJ File: 'arrow.blend'
# www.blender.org
o Cylinder.001
v 0.000000 0.050000 -0.600000
v 0.000000 0.050000 1.000000
v 0.019134 0.046194 -0.600000
v 0.019134 0.046194 1.000000
v 0.035355 0.035355 -0.600000
v 0.035355 0.035355 1.000000
v 0.046194 0.019134 -0.600000
v 0.046194 0.019134 1.000000
v 0.050000 -0.000000 -0.600000
v 0.050000 -0.000000 1.000000
v 0.046194 -0.019134 -0.600000
v 0.046194 -0.019134 1.000000
v 0.035355 -0.035355 -0.600000
v 0.035355 -0.035355 1.000000
v 0.019134 -0.046194 -0.600000
v 0.019134 -0.046194 1.000000
v 0.000000 -0.050000 -0.600000
v 0.000000 -0.050000 1.000000
v -0.019134 -0.046194 -0.600000
v -0.019134 -0.046194 1.000000
v -0.035355 -0.035355 -0.600000
v -0.035355 -0.035355 1.000000
v -0.046194 -0.019134 -0.600000
v -0.046194 -0.019134 1.000000
v -0.050000 -0.000000 -0.600000
v -0.050000 -0.000000 1.000000
v -0.046194 0.019134 -0.600000
v -0.046194 0.019134 1.000000
v -0.035355 0.035355 -0.600000
v -0.035355 0.035355 1.000000
v -0.019134 0.046194 -0.600000
v -0.019134 0.046194 1.000000
v 0.000000 0.125000 -0.600000
v 0.047836 0.115485 -0.600000
v 0.088388 0.088388 -0.600000
v 0.115485 0.047835 -0.600000
v 0.125000 -0.000000 -0.600000
v 0.115485 -0.047835 -0.600000
v 0.088388 -0.088388 -0.600000
v 0.047836 -0.115485 -0.600000
v 0.000000 -0.125000 -0.600000
v -0.047835 -0.115485 -0.600000
v -0.088388 -0.088388 -0.600000
v -0.115485 -0.047835 -0.600000
v -0.125000 -0.000000 -0.600000
v -0.115485 0.047835 -0.600000
v -0.088388 0.088388 -0.600000
v -0.047835 0.115485 -0.600000
v 0.000000 0.000000 -1.000000
vn 0.1951 0.9808 0.0000
vn 0.5556 0.8315 0.0000
vn 0.8315 0.5556 -0.0000
vn 0.9808 0.1951 0.0000
vn 0.9808 -0.1951 -0.0000
vn 0.8315 -0.5556 0.0000
vn 0.5556 -0.8315 -0.0000
vn 0.1951 -0.9808 -0.0000
vn -0.1951 -0.9808 0.0000
vn -0.5556 -0.8315 -0.0000
vn -0.8315 -0.5556 -0.0000
vn -0.9808 -0.1951 0.0000
vn -0.9808 0.1951 0.0000
vn -0.8315 0.5556 0.0000
vn 0.0000 0.0000 1.0000
vn -0.5556 0.8315 0.0000
vn -0.1951 0.9808 0.0000
vn -0.9377 -0.1865 -0.2930
vn 0.9377 -0.1865 -0.2930
vn -0.9377 0.1865 -0.2930
vn 0.7950 -0.5312 -0.2930
vn -0.7950 0.5312 -0.2930
vn 0.5312 -0.7950 -0.2930
vn -0.5312 0.7950 -0.2930
vn 0.1865 -0.9377 -0.2930
vn 0.1865 0.9377 -0.2930
vn -0.1865 0.9377 -0.2930
vn -0.1865 -0.9377 -0.2930
vn 0.5312 0.7950 -0.2930
vn -0.5312 -0.7950 -0.2930
vn 0.7950 0.5312 -0.2930
vn -0.7950 -0.5312 -0.2930
vn 0.9377 0.1865 -0.2930
s off
f 2//1 3//1 1//1
f 4//2 5//2 3//2
f 6//3 7//3 5//3
f 8//4 9//4 7//4
f 10//5 11//5 9//5
f 12//6 13//6 11//6
f 14//7 15//7 13//7
f 16//8 17//8 15//8
f 18//9 19//9 17//9
f 20//10 21//10 19//10
f 22//11 23//11 21//11
f 24//12 25//12 23//12
f 26//13 27//13 25//13
f 28//14 29//14 27//14
f 18//15 14//15 6//15
f 30//16 31//16 29//16
f 32//17 1//17 31//17
f 7//15 35//15 5//15
f 44//18 45//18 49//18
f 17//15 40//15 15//15
f 3//15 33//15 1//15
f 25//15 46//15 45//15
f 13//15 38//15 11//15
f 21//15 44//15 43//15
f 31//15 33//15 48//15
f 9//15 36//15 7//15
f 17//15 42//15 41//15
f 29//15 46//15 27//15
f 3//15 35//15 34//15
f 13//15 40//15 39//15
f 25//15 44//15 23//15
f 9//15 38//15 37//15
f 21//15 42//15 19//15
f 31//15 47//15 29//15
f 37//19 38//19 49//19
f 45//20 46//20 49//20
f 38//21 39//21 49//21
f 46//22 47//22 49//22
f 39//23 40//23 49//23
f 47//24 48//24 49//24
f 40//25 41//25 49//25
f 33//26 34//26 49//26
f 48//27 33//27 49//27
f 41//28 42//28 49//28
f 34//29 35//29 49//29
f 42//30 43//30 49//30
f 35//31 36//31 49//31
f 43//32 44//32 49//32
f 36//33 37//33 49//33
f 2//1 4//1 3//1
f 4//2 6//2 5//2
f 6//3 8//3 7//3
f 8//4 10//4 9//4
f 10//5 12//5 11//5
f 12//6 14//6 13//6
f 14//7 16//7 15//7
f 16//8 18//8 17//8
f 18//9 20//9 19//9
f 20//10 22//10 21//10
f 22//11 24//11 23//11
f 24//12 26//12 25//12
f 26//13 28//13 27//13
f 28//14 30//14 29//14
f 6//15 4//15 2//15
f 2//15 32//15 30//15
f 30//15 28//15 26//15
f 26//15 24//15 30//15
f 24//15 22//15 30//15
f 22//15 20//15 18//15
f 18//15 16//15 14//15
f 14//15 12//15 6//15
f 12//15 10//15 6//15
f 10//15 8//15 6//15
f 6//15 2//15 22//15
f 2//15 30//15 22//15
f 22//15 18//15 6//15
f 30//16 32//16 31//16
f 32//17 2//17 1//17
f 7//15 36//15 35//15
f 17//15 41//15 40//15
f 3//15 34//15 33//15
f 25//15 27//15 46//15
f 13//15 39//15 38//15
f 21//15 23//15 44//15
f 31//15 1//15 33//15
f 9//15 37//15 36//15
f 17//15 19//15 42//15
f 29//15 47//15 46//15
f 3//15 5//15 35//15
f 13//15 15//15 40//15
f 25//15 45//15 44//15
f 9//15 11//15 38//15
f 21//15 43//15 42//15
f 31//15 48//15 47//15
